<svg xmlns="http://www.w3.org/2000/svg" viewBox="0 0 2707.68 2574.5"><defs><style>.cls-1{fill:#ff4800;}.cls-2{fill:#ffd880;}</style></defs><g id="Layer_2" data-name="Layer 2"><g id="Layer_9" data-name="Layer 9"><path class="cls-1" d="M2642,954.33C2468.59,283.62,1751.36-111,1040,72.84S-107.62,949.48,65.73,1620.18s890.58,1065.35,1602,881.48S2815.3,1625,2642,954.33ZM1465.46,2341.2c-175.59,10.48-275.39-115.18-285-276.64-15.39-258,66.82-330.67,54.38-539.13-20.4-341.82-424.94-550.6-441.29-824.65-9.11-152.57,79.3-287.13,278.45-299,241.13-14.39,365,65.26,374.16,218.93,6.6,110.71-144.1,300.56-132.32,498.1,30,502.83,575.82,572.55,591.48,835.06C1916.58,2143,1679,2328.46,1465.46,2341.2Z"/><path class="cls-1" d="M1315.71,2574.5a1404.53,1404.53,0,0,1-177.54-11.25c-172.66-22-336.36-75-486.54-157.64C501.3,2322.89,372.08,2214.69,267.54,2084a1219.86,1219.86,0,0,1-250-967.32c28.11-165,88.72-322.26,180.14-467.45S406.5,378.44,546.89,275.56C692.17,169.11,855.74,91.9,1033,46.07s357.8-57.53,536.46-34.81c172.67,22,336.36,75,486.55,157.64s279.55,190.92,384.08,321.62a1219.92,1219.92,0,0,1,250,967.32c-28.11,165-88.72,322.25-180.14,467.45s-208.83,270.78-349.23,373.65c-145.28,106.45-308.84,183.66-486.14,229.49A1432.1,1432.1,0,0,1,1315.71,2574.5ZM1392,55.3a1376.74,1376.74,0,0,0-345.11,44.31c-170.49,44.06-327.71,118.27-467.3,220.56C444.82,418.91,332.07,539.53,244.46,678.68S98.92,968.18,72,1126a1164.62,1164.62,0,0,0,238.68,923.5c100,125,223.64,228.52,367.56,307.71s301.14,130.15,466.87,151.23c171.67,21.84,345.17,10.57,515.65-33.49s327.7-118.27,467.3-220.56c134.76-98.75,247.51-219.37,335.12-358.51s145.53-289.5,172.42-447.28A1164.6,1164.6,0,0,0,2397,525.05c-100-125-223.63-228.52-367.56-307.71S1728.25,87.19,1562.53,66.11A1351.46,1351.46,0,0,0,1392,55.3Zm53.27,2314.16c-82,0-152.36-28.46-204.52-83-51.41-53.75-82.63-132-87.9-220.26-8.34-139.8,10.86-225.33,29.43-308,15.74-70.1,30.6-136.31,25-231.08-10.23-171.38-123.69-309.55-233.41-443.16-102.66-125-199.62-243.07-207.88-381.49-5.1-85.45,18.92-164.21,67.62-221.77C887.4,417,969.27,380.2,1070.33,374.17c124.31-7.41,221.85,9.52,289.93,50.33,34.94,20.95,62.33,48.31,81.4,81.31,18.74,32.43,29.53,70.53,32.08,113.24,3.21,53.82-23.78,118.07-55,192.46-39.21,93.33-83.64,199.1-77.29,305.65,16.66,279.26,198.16,417.76,358.3,539.95,58.55,44.68,113.85,86.88,155.78,132.55,49.4,53.81,74,105.46,77.4,162.55,5.76,96.6-47.23,199.59-145.38,282.58-91.54,77.41-211.32,127.5-320.42,134h0Q1456.06,2369.46,1445.26,2369.46ZM1125.93,427.75q-25.14,0-52.31,1.62c-85.6,5.11-154,35.19-197.86,87-40,47.34-58.94,110.54-54.63,182.77,7.19,120.5,98.61,231.83,195.41,349.69,56.12,68.34,114.15,139,159.9,216.11,52.77,89,80.89,173.63,86,258.84,6.12,102.57-9.58,172.48-26.19,246.49-17.73,79-36.07,160.64-28.19,292.65,4.49,75.22,30.29,141,72.66,185.33,45.16,47.21,108.47,69.79,183.11,65.35h0c97.59-5.82,205.26-51.07,288-121,84.71-71.63,130.59-158,125.88-237.06-2.61-43.71-22.61-84.53-62.93-128.46-38.63-42.07-92-82.83-148.6-126-161.18-123-361.77-276.06-379.94-580.62-7.13-119.39,42-236.36,81.5-330.35,27.39-65.2,53.25-126.78,50.81-167.75-4.1-68.7-32.46-117.9-86.71-150.42C1282.83,442.55,1213.72,427.75,1125.93,427.75Z"/><path class="cls-2" d="M1532.83,260.15c131.6,22.35,530.71,125.49,722.84,569.62a55.59,55.59,0,0,0,54.25,33.6l53.59-3.2a55.42,55.42,0,0,0,47.8-76.84c-75.9-180.13-321.48-634.13-868.63-633.24-32.06,0-57.61,26.76-55.7,58.75h0A55.3,55.3,0,0,0,1532.83,260.15Z"/></g></g></svg>